<svg width="1023" height="268" viewBox="0 0 1023 268" fill="none" xmlns="http://www.w3.org/2000/svg">
<g clip-path="url(#clip0_22_2)">
<path d="M164.463 0.380127L10.1721 267.62L238.552 128.707L164.463 0.380127Z" fill="#F2C864"/>
<path d="M243.623 137.415L170.226 181.152L318.979 265.204L243.623 137.415Z" fill="#0B4251"/>
<path d="M457.776 75.793C456.599 64.7833 451.641 56.2108 442.9 50.0756C434.244 43.9405 422.982 40.8729 409.115 40.8729C399.366 40.8729 391.003 42.3436 384.028 45.2852C377.052 48.2267 371.715 52.2187 368.017 57.2613C364.319 62.304 362.429 68.061 362.344 74.5323C362.344 79.9111 363.563 84.5755 366 88.5256C368.522 92.4756 371.925 95.8374 376.212 98.6108C380.498 101.3 385.246 103.569 390.457 105.418C395.668 107.267 400.92 108.822 406.215 110.083L430.42 116.134C440.169 118.403 449.54 121.471 458.532 125.337C467.609 129.203 475.719 134.077 482.863 139.96C490.091 145.843 495.806 152.945 500.008 161.265C504.21 169.586 506.311 179.335 506.311 190.512C506.311 205.64 502.445 218.961 494.713 230.475C486.981 241.905 475.803 250.856 461.18 257.327C446.64 263.714 429.033 266.908 408.358 266.908C388.272 266.908 370.833 263.798 356.041 257.579C341.334 251.36 329.82 242.283 321.499 230.349C313.263 218.415 308.809 203.875 308.136 186.73H354.15C354.823 195.723 357.596 203.203 362.471 209.17C367.345 215.137 373.69 219.592 381.506 222.533C389.406 225.475 398.231 226.945 407.98 226.945C418.149 226.945 427.058 225.433 434.706 222.407C442.438 219.297 448.489 215.011 452.859 209.548C457.23 204.001 459.457 197.53 459.541 190.134C459.457 183.411 457.482 177.864 453.616 173.494C449.75 169.039 444.329 165.341 437.353 162.4C430.462 159.374 422.394 156.685 413.149 154.332L383.776 146.768C362.513 141.305 345.704 133.027 333.349 121.933C321.079 110.755 314.944 95.9214 314.944 77.4318C314.944 62.2199 319.062 48.899 327.298 37.4691C335.619 26.0392 346.922 17.1726 361.21 10.8693C375.497 4.482 391.676 1.28834 409.745 1.28834C428.067 1.28834 444.119 4.482 457.902 10.8693C471.769 17.1726 482.653 25.9551 490.553 37.217C498.453 48.3948 502.529 61.2534 502.781 75.793H457.776Z" fill="#0B4251"/>
<path d="M618.59 4.82031L527.711 263H577.617L646.457 57.7734H648.473L717.433 263.004H767.344L676.328 4.82031H618.59Z" fill="#0B4251"/>
<path d="M647.515 144.92L678.374 198.369H616.655L647.515 144.92Z" fill="#F2C864"/>
<path d="M784.465 263V4.81817H831.235V114.117H950.871V4.81817H997.768V263H950.871V153.323H831.235V263H784.465Z" fill="#0B4251"/>
</g>
<defs>
<clipPath id="clip0_22_2">
<rect width="1023" height="268" fill="white"/>
</clipPath>
</defs>
</svg>
